<?xml version="1.0" encoding="UTF-8"?><svg id="uuid-dcec1c08-b96b-4b6c-ba5f-540ee6a4e78d" xmlns="http://www.w3.org/2000/svg" xmlns:xlink="http://www.w3.org/1999/xlink" viewBox="0 0 498.34 499.4"><defs><style>.uuid-d7b65e49-bc86-428f-bfa3-08359e1a8b93{fill:none;}.uuid-1158c717-67a7-4118-9455-4a970474f709{fill:url(#uuid-a53a16a1-754c-4727-b7a6-118a765d463a);}.uuid-6c07f8d8-ee9f-4822-9599-92f60383c4f2{fill:url(#uuid-c93cd726-13d9-4c6c-a507-4614e4ee4302);}.uuid-0e058426-9227-4061-97e1-91e4ad0566fc{fill:url(#uuid-0f8a1709-182d-4cfa-8fb3-66c2c186dcea);}.uuid-17da17f6-cec0-45f6-ae34-f326dffa8efd{fill:url(#uuid-10faaaa6-3841-4907-9ff9-5185f894fa52);}.uuid-0a1e966f-d90e-4bc5-adab-0504e5230333{fill:url(#uuid-5b62c75f-f21d-40c0-a2fb-4ca1801d7b64);}.uuid-8eb73ce8-6412-4871-aeba-c72299d39341{font-family:MontserratAlt1-Light, Montserrat-Alt1;font-size:37.44px;font-weight:300;}.uuid-8eb73ce8-6412-4871-aeba-c72299d39341,.uuid-d31bc7a4-babc-49db-963c-5e4f55f17fab{fill:#fff;}.uuid-282e3b39-932c-48a2-8938-3461ef466aad{fill:url(#uuid-23f0eda2-1c47-436c-87aa-bb9847424374);}.uuid-b81d0146-f4c0-4d27-8918-38ab35f9d262{fill:url(#uuid-016c1da2-3781-46ab-8f01-626cb196671f);}.uuid-627a04a2-f0cf-4287-aa17-6036cf68fdd7{fill:url(#uuid-f8447b60-1916-4695-b25e-407390d71050);}.uuid-d31bc7a4-babc-49db-963c-5e4f55f17fab{font-family:Montserrat-Bold, Montserrat;font-size:47.52px;font-weight:700;}.uuid-dc0dd920-2239-471e-9227-1a76a0965519{fill:url(#uuid-67d296ca-2ad9-401a-89eb-6dcbd41f290a);}.uuid-520aa080-3c89-456b-bf71-9111c7ef32b4{fill:url(#uuid-5dbe03e8-6e2b-41e2-844c-52c5119c42c8);}.uuid-1a5b490d-c65d-4059-b782-306f3585666a{fill:url(#uuid-500ff24d-45ff-47c2-a923-09b4e66f913c);}.uuid-297672ab-f377-45b9-8394-2876a3f29a66{fill:url(#uuid-0df917ef-e122-4fa9-ade6-d936af76ef7a);}.uuid-21fe8965-e361-4e17-aa9d-0a74df2428dc{letter-spacing:.07em;}.uuid-4040e656-db7c-466a-b713-bfff2a33ca8e{fill:url(#uuid-ab280c24-f496-4f69-9713-7c6667c542cb);}.uuid-83cf850e-ae39-46dc-8d66-00a4a1486484{letter-spacing:-.02em;}.uuid-23e9a4e3-938a-46ec-8eb6-6205a52f8157{fill:url(#uuid-eec8b7f7-1f21-4f02-88e5-4dc10d14e0a4);}.uuid-4d729d90-250a-4780-9b02-6a40a3e8cbc5{letter-spacing:.08em;}.uuid-daf044f3-998b-40b1-ab7c-493d31e17c7b{fill:url(#uuid-b4ad5e96-9494-4593-a510-f6ce7de7eb50);}.uuid-aa04daa9-dd16-46ff-85b4-f44a2fc9f351{fill:url(#uuid-137bfc23-eeb9-4c4b-a8f6-86036af3d854);}.uuid-262ea40a-0f55-498a-959f-b6db705ade72{letter-spacing:0em;}.uuid-05d7276e-c751-40e1-a30c-9cdf561cd865{letter-spacing:0em;}.uuid-9b62ffe7-87b0-45df-a33e-5e83a6128931{fill:url(#uuid-df0f3236-aaec-4b07-82b1-92ebf86b6b4d);}.uuid-3a102959-89b4-4048-a5e6-4768683d09f1{fill:url(#uuid-33f37426-c923-4fd4-a2c8-63c93ffe208e);}.uuid-cf19baaa-92ea-4cb0-91de-db296e43de47{letter-spacing:.08em;}.uuid-b1bc91ab-d2fc-4a2d-9068-f678263d70df{fill:url(#uuid-00c6415c-c0e3-4779-8f19-7b97fd2fba7e);}.uuid-3d5e71ea-8e99-4ab8-ab66-778898c8ec71{fill:url(#uuid-8c7f88d3-6ce2-4f68-9aea-f68885bc065a);}</style><linearGradient id="uuid-f8447b60-1916-4695-b25e-407390d71050" x1="26.37" y1="309.67" x2="293.88" y2="40.5" gradientUnits="userSpaceOnUse"><stop offset="0" stop-color="#2f5777"/><stop offset="1" stop-color="#57a1a4"/></linearGradient><linearGradient id="uuid-b4ad5e96-9494-4593-a510-f6ce7de7eb50" x1="13.55" y1="296.92" x2="281.06" y2="27.75" xlink:href="#uuid-f8447b60-1916-4695-b25e-407390d71050"/><linearGradient id="uuid-500ff24d-45ff-47c2-a923-09b4e66f913c" x1="-26.42" y1="257.2" x2="241.09" y2="-11.97" xlink:href="#uuid-f8447b60-1916-4695-b25e-407390d71050"/><linearGradient id="uuid-5dbe03e8-6e2b-41e2-844c-52c5119c42c8" x1="13.97" y1="297.34" x2="281.48" y2="28.17" xlink:href="#uuid-f8447b60-1916-4695-b25e-407390d71050"/><linearGradient id="uuid-137bfc23-eeb9-4c4b-a8f6-86036af3d854" x1="212.92" y1="495.06" x2="480.43" y2="225.9" xlink:href="#uuid-f8447b60-1916-4695-b25e-407390d71050"/><linearGradient id="uuid-5b62c75f-f21d-40c0-a2fb-4ca1801d7b64" x1="-3.51" y1="279.97" x2="264" y2="10.8" xlink:href="#uuid-f8447b60-1916-4695-b25e-407390d71050"/><linearGradient id="uuid-8c7f88d3-6ce2-4f68-9aea-f68885bc065a" x1="212.5" y1="494.65" x2="480.01" y2="225.48" xlink:href="#uuid-f8447b60-1916-4695-b25e-407390d71050"/><linearGradient id="uuid-67d296ca-2ad9-401a-89eb-6dcbd41f290a" x1="229.98" y1="512.01" x2="497.48" y2="242.84" xlink:href="#uuid-f8447b60-1916-4695-b25e-407390d71050"/><linearGradient id="uuid-ab280c24-f496-4f69-9713-7c6667c542cb" x1="137.03" y1="419.65" x2="404.54" y2="150.48" xlink:href="#uuid-f8447b60-1916-4695-b25e-407390d71050"/><linearGradient id="uuid-33f37426-c923-4fd4-a2c8-63c93ffe208e" x1="70.85" y1="353.87" x2="338.35" y2="84.7" xlink:href="#uuid-f8447b60-1916-4695-b25e-407390d71050"/><linearGradient id="uuid-10faaaa6-3841-4907-9ff9-5185f894fa52" x1="89.44" y1="372.35" x2="356.95" y2="103.18" xlink:href="#uuid-f8447b60-1916-4695-b25e-407390d71050"/><linearGradient id="uuid-eec8b7f7-1f21-4f02-88e5-4dc10d14e0a4" x1="113.24" y1="395.99" x2="380.74" y2="126.82" xlink:href="#uuid-f8447b60-1916-4695-b25e-407390d71050"/><linearGradient id="uuid-00c6415c-c0e3-4779-8f19-7b97fd2fba7e" x1="181.79" y1="464.12" x2="449.3" y2="194.95" xlink:href="#uuid-f8447b60-1916-4695-b25e-407390d71050"/><linearGradient id="uuid-df0f3236-aaec-4b07-82b1-92ebf86b6b4d" x1="129.02" y1="411.68" x2="396.53" y2="142.51" xlink:href="#uuid-f8447b60-1916-4695-b25e-407390d71050"/><linearGradient id="uuid-0f8a1709-182d-4cfa-8fb3-66c2c186dcea" x1="97.46" y1="380.31" x2="364.96" y2="111.14" xlink:href="#uuid-f8447b60-1916-4695-b25e-407390d71050"/><linearGradient id="uuid-c93cd726-13d9-4c6c-a507-4614e4ee4302" x1="44.68" y1="327.86" x2="312.19" y2="58.7" xlink:href="#uuid-f8447b60-1916-4695-b25e-407390d71050"/><linearGradient id="uuid-016c1da2-3781-46ab-8f01-626cb196671f" x1="252.89" y1="534.78" x2="520.4" y2="265.61" xlink:href="#uuid-f8447b60-1916-4695-b25e-407390d71050"/><linearGradient id="uuid-0df917ef-e122-4fa9-ade6-d936af76ef7a" x1="155.62" y1="438.12" x2="423.13" y2="168.95" xlink:href="#uuid-f8447b60-1916-4695-b25e-407390d71050"/><linearGradient id="uuid-23f0eda2-1c47-436c-87aa-bb9847424374" x1="200.1" y1="482.32" x2="467.61" y2="213.15" xlink:href="#uuid-f8447b60-1916-4695-b25e-407390d71050"/><radialGradient id="uuid-a53a16a1-754c-4727-b7a6-118a765d463a" cx="250.23" cy="231.15" fx="250.23" fy="231.15" r="180.81" gradientUnits="userSpaceOnUse"><stop offset="0" stop-color="#d1f7d0" stop-opacity="0"/><stop offset=".86" stop-color="#d1f7d0" stop-opacity="0"/><stop offset="1" stop-color="#d1f7d0" stop-opacity="0"/></radialGradient></defs><g id="uuid-5c9a0a57-0dca-4d7d-a5e3-78021ca1ff06"><rect class="uuid-d7b65e49-bc86-428f-bfa3-08359e1a8b93" width="498.34" height="499.4"/><path class="uuid-627a04a2-f0cf-4287-aa17-6036cf68fdd7" d="m183.28,71.21c-2.44,2.89-4.83,5.93-7.16,9.11,2.24.52,4.46,1.05,6.61,1.6,23.72,6.03,48.37,15.16,73.28,27.14,24.9-11.98,49.55-21.1,73.28-27.14,1.66-.42,3.4-.85,5.26-1.28-3.67-4.97-7.48-9.57-11.41-13.81h-136.01c-1.3,1.42-2.58,2.87-3.85,4.38Z"/><path class="uuid-daf044f3-998b-40b1-ab7c-493d31e17c7b" d="m202.4,139.11c13.81-8.87,27.9-17.02,42.2-24.37-25.75-11.86-50.79-20.47-74.53-25.62-17.95,27.84-30.78,63.42-37.27,103.3,9.27-8.42,19.04-16.67,29.11-24.55,13.15-10.28,26.68-19.89,40.49-28.77Z"/><path class="uuid-1a5b490d-c65d-4059-b782-306f3585666a" d="m173.94,66.84h-25.03l-4.66,8.07c6.84.71,13.91,1.76,21.2,3.16,2.74-3.94,5.58-7.68,8.48-11.23Z"/><path class="uuid-520aa080-3c89-456b-bf71-9111c7ef32b4" d="m77.95,252.33c-2.95-3.98-5.75-7.94-8.36-11.79-3.96-5.86-7.59-11.69-10.9-17.45l-16.88,29.23,16.88,29.23c3.31-5.76,6.94-11.58,10.89-17.44,2.6-3.85,5.4-7.81,8.36-11.79Z"/><path class="uuid-aa04daa9-dd16-46ff-85b4-f44a2fc9f351" d="m350.1,336.79c-26.3,20.57-54.1,38.43-82.69,53.13,25.75,11.86,50.8,20.46,74.53,25.62,17.95-27.84,30.78-63.42,37.27-103.31-9.27,8.43-19.04,16.67-29.11,24.55Z"/><path class="uuid-0a1e966f-d90e-4bc5-adab-0504e5230333" d="m77.87,234.96c1.98,2.93,4.12,5.98,6.4,9.11,10.83-13.74,23.2-27.39,36.81-40.62,2.88-22.95,7.79-44.79,14.61-64.93,6.41-18.93,14.44-36.23,23.87-51.47-7.16-1.26-14.09-2.15-20.76-2.69l-74.29,128.68c3.91,7.19,8.37,14.51,13.37,21.92Z"/><path class="uuid-3d5e71ea-8e99-4ab8-ab66-778898c8ec71" d="m434.07,252.33c2.95,3.98,5.76,7.94,8.36,11.79,3.96,5.86,7.59,11.68,10.89,17.44l16.88-29.23-16.88-29.23c-3.31,5.76-6.94,11.58-10.9,17.45-2.6,3.85-5.41,7.81-8.36,11.79Z"/><path class="uuid-dc0dd920-2239-471e-9227-1a76a0965519" d="m427.75,260.59c-10.83,13.73-23.19,27.39-36.81,40.62-2.88,22.95-7.79,44.79-14.61,64.93-6.41,18.93-14.44,36.23-23.87,51.47,7.16,1.26,14.09,2.15,20.76,2.69l74.29-128.68c-3.91-7.19-8.36-14.51-13.36-21.92-1.98-2.93-4.12-5.99-6.4-9.11Z"/><path class="uuid-4040e656-db7c-466a-b713-bfff2a33ca8e" d="m351.11,87.3c.77,1.23,1.48,2.38,2.15,3.49,18.61,31.01,31.47,69.8,37.21,112.2,13.78,13.37,26.31,27.18,37.28,41.09,2.28-3.13,4.43-6.19,6.4-9.11,5-7.41,9.46-14.73,13.37-21.92l-74.29-128.68c-7.08.58-14.47,1.56-22.11,2.94Z"/><path class="uuid-3a102959-89b4-4048-a5e6-4768683d09f1" d="m367.77,74.92l-4.66-8.08h-26.69c3,3.63,5.93,7.46,8.76,11.5,7.76-1.53,15.3-2.67,22.59-3.42Z"/><path class="uuid-17da17f6-cec0-45f6-ae34-f326dffa8efd" d="m160.92,417.38c-.78-1.23-1.49-2.39-2.16-3.5-18.61-31.01-31.47-69.8-37.21-112.2-13.78-13.37-26.31-27.18-37.28-41.09-2.28,3.13-4.43,6.19-6.4,9.11-5,7.41-9.45,14.73-13.36,21.92l74.3,128.69c7.07-.57,14.48-1.55,22.11-2.93Z"/><path class="uuid-23e9a4e3-938a-46ec-8eb6-6205a52f8157" d="m363.23,313.07c6.25-5.41,12.33-10.94,18.18-16.54,1.74-14.79,2.57-29.84,2.48-44.74-.1-14.81-1.06-29.62-2.88-44.04-11.59-11.08-24.06-21.85-37.06-32.02-27.85-21.79-57.43-40.47-87.95-55.55-30.51,15.08-60.09,33.76-87.94,55.55-13.16,10.29-25.76,21.19-37.46,32.4-1.73,14.79-2.57,29.84-2.48,44.74.1,14.8,1.06,29.62,2.88,44.04,11.6,11.08,24.06,21.85,37.06,32.02,27.85,21.79,57.43,40.47,87.96,55.55,30.48-15.07,60.06-33.75,87.93-55.55,6.58-5.15,13.02-10.45,19.28-15.86Z"/><path class="uuid-b1bc91ab-d2fc-4a2d-9068-f678263d70df" d="m392.57,285.47c10.56-10.85,20.28-21.97,28.94-33.14-8.74-11.26-18.55-22.48-29.25-33.45.99,10.84,1.53,21.87,1.6,32.85.07,11.19-.36,22.52-1.3,33.74Z"/><path class="uuid-9b62ffe7-87b0-45df-a33e-5e83a6128931" d="m133.37,312.75c6.8,39.45,19.89,74.76,38.02,102.51,23.34-5.19,47.95-13.7,73.21-25.34-28.59-14.7-56.39-32.56-82.69-53.13-9.84-7.7-19.42-15.77-28.54-24.04Z"/><path class="uuid-0e058426-9227-4061-97e1-91e4ad0566fc" d="m378.65,191.92c-6.81-39.45-19.89-74.75-38.02-102.51-23.36,5.19-47.96,13.7-73.22,25.33,28.59,14.7,56.38,32.56,82.69,53.13,9.84,7.7,19.42,15.77,28.55,24.04Z"/><path class="uuid-6c07f8d8-ee9f-4822-9599-92f60383c4f2" d="m119.44,219.2c-10.56,10.84-20.28,21.97-28.94,33.14,8.74,11.26,18.56,22.48,29.25,33.45-.99-10.84-1.53-21.87-1.6-32.85-.07-11.2.36-22.52,1.3-33.74Z"/><path class="uuid-b81d0146-f4c0-4d27-8918-38ab35f9d262" d="m338.08,437.82h25.02l4.66-8.06c-6.85-.71-13.93-1.76-21.2-3.16-2.74,3.94-5.57,7.68-8.47,11.22Z"/><path class="uuid-297672ab-f377-45b9-8394-2876a3f29a66" d="m144.25,429.74l4.66,8.08h26.69c-3-3.63-5.93-7.46-8.76-11.5-7.75,1.53-15.31,2.67-22.59,3.42Z"/><path class="uuid-282e3b39-932c-48a2-8938-3461ef466aad" d="m335.9,424.33c-2.37-.55-4.53-1.06-6.61-1.59-23.73-6.04-48.38-15.17-73.28-27.14-24.9,11.97-49.55,21.1-73.28,27.14-1.71.43-3.47.86-5.25,1.28,3.67,4.97,7.48,9.56,11.4,13.8h136.01c3.78-4.13,7.47-8.64,11.02-13.49Z"/><path class="uuid-1158c717-67a7-4118-9455-4a970474f709" d="m183.28,71.21c-2.44,2.89-4.83,5.93-7.16,9.11,2.24.52,4.46,1.05,6.61,1.6,23.72,6.03,48.37,15.16,73.28,27.14,24.9-11.98,49.55-21.1,73.28-27.14,1.66-.42,3.4-.85,5.26-1.28-3.67-4.97-7.48-9.57-11.41-13.81h-136.01c-1.3,1.42-2.58,2.87-3.85,4.38Z"/><path class="uuid-1158c717-67a7-4118-9455-4a970474f709" d="m202.4,139.11c13.81-8.87,27.9-17.02,42.2-24.37-25.75-11.86-50.79-20.47-74.53-25.62-17.95,27.84-30.78,63.42-37.27,103.3,9.27-8.42,19.04-16.67,29.11-24.55,13.15-10.28,26.68-19.89,40.49-28.77Z"/><path class="uuid-1158c717-67a7-4118-9455-4a970474f709" d="m173.94,66.84h-25.03l-4.66,8.07c6.84.71,13.91,1.76,21.2,3.16,2.74-3.94,5.58-7.68,8.48-11.23Z"/><path class="uuid-1158c717-67a7-4118-9455-4a970474f709" d="m77.95,252.33c-2.95-3.98-5.75-7.94-8.36-11.79-3.96-5.86-7.59-11.69-10.9-17.45l-16.88,29.23,16.88,29.23c3.31-5.76,6.94-11.58,10.89-17.44,2.6-3.85,5.4-7.81,8.36-11.79Z"/><path class="uuid-1158c717-67a7-4118-9455-4a970474f709" d="m350.1,336.79c-26.3,20.57-54.1,38.43-82.69,53.13,25.75,11.86,50.8,20.46,74.53,25.62,17.95-27.84,30.78-63.42,37.27-103.31-9.27,8.43-19.04,16.67-29.11,24.55Z"/><path class="uuid-1158c717-67a7-4118-9455-4a970474f709" d="m77.87,234.96c1.98,2.93,4.12,5.98,6.4,9.11,10.83-13.74,23.2-27.39,36.81-40.62,2.88-22.95,7.79-44.79,14.61-64.93,6.41-18.93,14.44-36.23,23.87-51.47-7.16-1.26-14.09-2.15-20.76-2.69l-74.29,128.68c3.91,7.19,8.37,14.51,13.37,21.92Z"/><path class="uuid-1158c717-67a7-4118-9455-4a970474f709" d="m434.07,252.33c2.95,3.98,5.76,7.94,8.36,11.79,3.96,5.86,7.59,11.68,10.89,17.44l16.88-29.23-16.88-29.23c-3.31,5.76-6.94,11.58-10.9,17.45-2.6,3.85-5.41,7.81-8.36,11.79Z"/><path class="uuid-1158c717-67a7-4118-9455-4a970474f709" d="m427.75,260.59c-10.83,13.73-23.19,27.39-36.81,40.62-2.88,22.95-7.79,44.79-14.61,64.93-6.41,18.93-14.44,36.23-23.87,51.47,7.16,1.26,14.09,2.15,20.76,2.69l74.29-128.68c-3.91-7.19-8.36-14.51-13.36-21.92-1.98-2.93-4.12-5.99-6.4-9.11Z"/><path class="uuid-1158c717-67a7-4118-9455-4a970474f709" d="m351.11,87.3c.77,1.23,1.48,2.38,2.15,3.49,18.61,31.01,31.47,69.8,37.21,112.2,13.78,13.37,26.31,27.18,37.28,41.09,2.28-3.13,4.43-6.19,6.4-9.11,5-7.41,9.46-14.73,13.37-21.92l-74.29-128.68c-7.08.58-14.47,1.56-22.11,2.94Z"/><path class="uuid-1158c717-67a7-4118-9455-4a970474f709" d="m367.77,74.92l-4.66-8.08h-26.69c3,3.63,5.93,7.46,8.76,11.5,7.76-1.53,15.3-2.67,22.59-3.42Z"/><path class="uuid-1158c717-67a7-4118-9455-4a970474f709" d="m160.92,417.38c-.78-1.23-1.49-2.39-2.16-3.5-18.61-31.01-31.47-69.8-37.21-112.2-13.78-13.37-26.31-27.18-37.28-41.09-2.28,3.13-4.43,6.19-6.4,9.11-5,7.41-9.45,14.73-13.36,21.92l74.3,128.69c7.07-.57,14.48-1.55,22.11-2.93Z"/><path class="uuid-1158c717-67a7-4118-9455-4a970474f709" d="m363.23,313.07c6.25-5.41,12.33-10.94,18.18-16.54,1.74-14.79,2.57-29.84,2.48-44.74-.1-14.81-1.06-29.62-2.88-44.04-11.59-11.08-24.06-21.85-37.06-32.02-27.85-21.79-57.43-40.47-87.95-55.55-30.51,15.08-60.09,33.76-87.94,55.55-13.16,10.29-25.76,21.19-37.46,32.4-1.73,14.79-2.57,29.84-2.48,44.74.1,14.8,1.06,29.62,2.88,44.04,11.6,11.08,24.06,21.85,37.06,32.02,27.85,21.79,57.43,40.47,87.96,55.55,30.48-15.07,60.06-33.75,87.93-55.55,6.58-5.15,13.02-10.45,19.28-15.86Z"/><path class="uuid-1158c717-67a7-4118-9455-4a970474f709" d="m392.57,285.47c10.56-10.85,20.28-21.97,28.94-33.14-8.74-11.26-18.55-22.48-29.25-33.45.99,10.84,1.53,21.87,1.6,32.85.07,11.19-.36,22.52-1.3,33.74Z"/><path class="uuid-1158c717-67a7-4118-9455-4a970474f709" d="m133.37,312.75c6.8,39.45,19.89,74.76,38.02,102.51,23.34-5.19,47.95-13.7,73.21-25.34-28.59-14.7-56.39-32.56-82.69-53.13-9.84-7.7-19.42-15.77-28.54-24.04Z"/><path class="uuid-1158c717-67a7-4118-9455-4a970474f709" d="m378.65,191.92c-6.81-39.45-19.89-74.75-38.02-102.51-23.36,5.19-47.96,13.7-73.22,25.33,28.59,14.7,56.38,32.56,82.69,53.13,9.84,7.7,19.42,15.77,28.55,24.04Z"/><path class="uuid-1158c717-67a7-4118-9455-4a970474f709" d="m119.44,219.2c-10.56,10.84-20.28,21.97-28.94,33.14,8.74,11.26,18.56,22.48,29.25,33.45-.99-10.84-1.53-21.87-1.6-32.85-.07-11.2.36-22.52,1.3-33.74Z"/><path class="uuid-1158c717-67a7-4118-9455-4a970474f709" d="m338.08,437.82h25.02l4.66-8.06c-6.85-.71-13.93-1.76-21.2-3.16-2.74,3.94-5.57,7.68-8.47,11.22Z"/><path class="uuid-1158c717-67a7-4118-9455-4a970474f709" d="m144.25,429.74l4.66,8.08h26.69c-3-3.63-5.93-7.46-8.76-11.5-7.75,1.53-15.31,2.67-22.59,3.42Z"/><path class="uuid-1158c717-67a7-4118-9455-4a970474f709" d="m335.9,424.33c-2.37-.55-4.53-1.06-6.61-1.59-23.73-6.04-48.38-15.17-73.28-27.14-24.9,11.97-49.55,21.1-73.28,27.14-1.71.43-3.47.86-5.25,1.28,3.67,4.97,7.48,9.56,11.4,13.8h136.01c3.78-4.13,7.47-8.64,11.02-13.49Z"/><text class="uuid-8eb73ce8-6412-4871-aeba-c72299d39341" transform="translate(189.39 289.81)"><tspan class="uuid-05d7276e-c751-40e1-a30c-9cdf561cd865" x="0" y="0">A</tspan><tspan class="uuid-83cf850e-ae39-46dc-8d66-00a4a1486484" x="26.36" y="0">t</tspan><tspan class="uuid-262ea40a-0f55-498a-959f-b6db705ade72" x="40.63" y="0">omix</tspan></text><text class="uuid-d31bc7a4-babc-49db-963c-5e4f55f17fab" transform="translate(162.84 245.43)"><tspan class="uuid-4d729d90-250a-4780-9b02-6a40a3e8cbc5" x="0" y="0">RE</tspan><tspan class="uuid-21fe8965-e361-4e17-aa9d-0a74df2428dc" x="74.7" y="0">A</tspan><tspan class="uuid-cf19baaa-92ea-4cb0-91de-db296e43de47" x="114.58" y="0">C</tspan><tspan class="uuid-4d729d90-250a-4780-9b02-6a40a3e8cbc5" x="153.02" y="0">T</tspan></text></g></svg>
